<?xml version="1.0" encoding="utf-8"?>
<!-- Generator: Adobe Illustrator 19.1.0, SVG Export Plug-In . SVG Version: 6.00 Build 0)  -->
<svg version="1.1" id="Layer_1" xmlns="http://www.w3.org/2000/svg" xmlns:xlink="http://www.w3.org/1999/xlink" x="0px" y="0px"
	 viewBox="-333 301 333 400" style="enable-background:new -333 301 333 400;" xml:space="preserve">
<style type="text/css">
	.st0{fill:none;stroke:#902C21;stroke-width:9;stroke-linejoin:bevel;}
	.st1{display:none;fill:none;stroke:#902C21;stroke-width:9;stroke-linejoin:bevel;}
	.st2{fill:#333333;}
	.st3{fill:none;stroke:#333333;stroke-width:10;stroke-miterlimit:10;}
</style>
<path class="st0" d="M105.7,117.5"/>
<path class="st1" d="M-156.5,494.5c117.1-100.2,208.4-229.6,262.6-377l48.4,116.8l-48.8-116.8l-116.8,48.4"/>
<path class="st1" d="M154.5,117.5C37.4,217.7-53.9,347.1-108.1,494.5l-48.4-116.9l48.8,116.8L9.1,446"/>
<g>
	<polygon class="st2" points="-169,532.1 -87,447.1 -114,421.6 -198,503.6 -198,432.6 -234.5,432.6 -234.5,570.6 -99.5,570.6 
		-98,532.6 	"/>
	<g id="XMLID_1_">
		<g>
			<path class="st2" d="M-316.5,501.1c0-12.9,1.7-25.7,5.1-38.6c6.7-25.7,19.7-48.1,39-67.4c19.2-19.2,41.7-32.2,67.4-39
				s51.4-6.8,77.1,0s48.1,19.8,67.4,39c19.2,19.2,32.2,41.7,39,67.4c3.4,12.8,5,25.7,5,38.6s-1.7,25.7-5,38.6
				c-6.8,25.7-19.8,48.2-39,67.4c-19.3,19.3-41.7,32.3-67.4,39c-25.7,6.8-51.4,6.8-77.1,0c-25.7-6.8-48.2-19.8-67.4-38.9
				c-19.3-19.3-32.2-41.7-39-67.4C-314.8,526.8-316.5,514-316.5,501.1 M-241.5,563.7v0.1c0,3.3,1.3,6.2,3.7,8.6
				c2.5,2.5,5.4,3.7,8.7,3.7h25.1h99.9c3.3,0,6.2-1.2,8.7-3.7s3.7-5.4,3.8-8.7v-25.1c0-3.3-1.3-6.2-3.7-8.7
				c-2.5-2.5-5.4-3.7-8.7-3.7h-52.2l69.3-69.3c2.4-2.4,3.6-5.3,3.6-8.8s-1.2-6.5-3.5-8.8l-17.9-17.7c-2.4-2.4-5.3-3.5-8.9-3.6
				c-3.5,0-6.4,1.2-8.8,3.6l-69.3,69.3v-52.1c0-3.5-1.2-6.4-3.6-8.8c-2.4-2.4-5.3-3.6-8.8-3.6h-25.1c-3.3,0.1-6.2,1.3-8.7,3.8
				s-3.7,5.4-3.7,8.7l0.1,99.7V563.7 M-326.5,501.1c0,13.7,1.8,27.5,5.4,41.1c7.2,27.3,21.1,51.5,41.5,71.9
				c20.4,20.4,44.6,34.3,72,41.5c27.2,7.2,54.9,7.2,82.2,0c27.3-7.2,51.5-21.2,71.9-41.6c20.4-20.4,34.4-44.6,41.6-71.9
				c3.6-13.6,5.4-27.5,5.4-41.1c0-13.7-1.8-27.5-5.4-41.1c-7.2-27.4-21.2-51.5-41.6-71.9s-44.6-34.4-71.9-41.6s-55-7.2-82.2,0
				c-27.3,7.2-51.5,21.2-71.9,41.6s-34.4,44.7-41.6,71.9C-324.7,473.6-326.5,487.4-326.5,501.1L-326.5,501.1z M-231.5,563.7v-25.1
				l0-99.8c0-0.5,0.1-0.9,0.8-1.6c0.7-0.7,1.1-0.8,1.8-0.8h25c0.8,0,1.2,0.2,1.7,0.7s0.7,0.9,0.7,1.7v52.1l0,24.2l17-17.1l69.3-69.3
				c0.4-0.4,0.7-0.6,1.7-0.6c1.2,0,1.5,0.4,1.8,0.6l17.7,17.7c0.3,0.3,0.6,0.7,0.6,1.8c0,1-0.3,1.3-0.6,1.7l-69.4,69.2l-17,17.1
				h24.1h52.2c0.3,0,0.8,0,1.6,0.8c0.7,0.7,0.8,1.2,0.8,1.7v25c0,0.5-0.1,0.9-0.8,1.7c-0.8,0.8-1.2,0.8-1.6,0.8H-204h-25.1h-0.1
				h-0.1c-0.3,0-0.7,0-1.5-0.8s-0.8-1.2-0.8-1.5L-231.5,563.7L-231.5,563.7L-231.5,563.7z"/>
		</g>
	</g>
	<circle class="st3" cx="-166.5" cy="501.3" r="159.7"/>
</g>
</svg>
