<?xml version="1.0" encoding="utf-8"?>
<!-- Generator: Adobe Illustrator 19.1.0, SVG Export Plug-In . SVG Version: 6.00 Build 0)  -->
<svg version="1.1" id="Layer_1" xmlns="http://www.w3.org/2000/svg" xmlns:xlink="http://www.w3.org/1999/xlink" x="0px" y="0px"
	 viewBox="162 -195 333 400" style="enable-background:new 162 -195 333 400;" xml:space="preserve">
<style type="text/css">
	.st0{fill:none;stroke:#902C21;stroke-width:9;stroke-linejoin:bevel;}
	.st1{display:none;fill:none;stroke:#902C21;stroke-width:9;stroke-linejoin:bevel;}
	.st2{fill:#333333;}
</style>
<path class="st0" d="M438.7-183.5"/>
<path class="st1" d="M176.5,193.5c117.1-100.2,208.4-229.6,262.6-377l48.4,116.8l-48.8-116.8l-116.8,48.4"/>
<path class="st1" d="M487.5-183.5C370.4-83.3,279.1,46.1,224.9,193.5L176.5,76.6l48.8,116.8L342.1,145"/>
<g id="XMLID_241_">
	<g>
		<path class="st2" d="M328.5-146c12.9,0,25.7,1.7,38.6,5.1c25.7,6.8,48.1,19.8,67.4,39c19.2,19.2,32.2,41.7,39,67.4
			c6.7,25.7,6.7,51.4,0,77.1c-6.8,25.7-19.8,48.2-39,67.4c-19.3,19.3-41.7,32.3-67.4,39c-12.9,3.4-25.7,5.1-38.6,5.1
			c-12.9,0-25.7-1.7-38.5-5.1c-25.7-6.8-48.2-19.8-67.4-38.9c-19.3-19.3-32.2-41.7-39-67.4c-6.8-25.7-6.8-51.4,0-77.1
			c6.7-25.7,19.7-48.1,39-67.4c19.2-19.2,41.7-32.2,67.4-39C302.8-144.3,315.6-146,328.5-146 M303.4-6.2l0-52.1
			c0-3.5-1.2-6.4-3.6-8.8c-2.4-2.4-5.3-3.6-8.8-3.6h-25.1c-3.3,0.1-6.2,1.3-8.7,3.8c-2.5,2.5-3.7,5.4-3.7,8.7l0,99.9v25.1
			c0,3.3,1.2,6.2,3.7,8.7c2.4,2.4,5.3,3.7,8.5,3.7c0.1,0,0.1,0,0.2,0l25.1,0l99.9,0c3.3,0,6.2-1.2,8.7-3.7c2.5-2.5,3.7-5.4,3.8-8.7
			l0-25.1c0-3.3-1.3-6.2-3.7-8.7c-2.5-2.5-5.4-3.7-8.7-3.7l-52.2,0L408-40.2c2.4-2.4,3.6-5.3,3.6-8.8c0-3.5-1.2-6.5-3.5-8.8
			l-17.7-17.7c-2.4-2.4-5.3-3.5-8.9-3.6c-3.5,0-6.4,1.2-8.8,3.6L303.4-6.2 M328.5-156c-13.7,0-27.5,1.8-41.1,5.4
			c-27.3,7.2-51.5,21.2-71.9,41.6c-20.4,20.4-34.4,44.7-41.6,71.9c-7.2,27.3-7.2,54.9,0,82.2c7.2,27.3,21.1,51.5,41.5,71.9
			c20.4,20.4,44.6,34.3,72,41.5c13.6,3.6,27.4,5.4,41.1,5.4c13.7,0,27.5-1.8,41.1-5.4c27.3-7.2,51.5-21.2,71.9-41.6
			c20.4-20.4,34.4-44.6,41.6-71.9c7.1-27.3,7.1-54.9,0-82.2c-7.2-27.4-21.2-51.5-41.6-71.9c-20.4-20.4-44.6-34.4-71.9-41.6
			C356-154.2,342.2-156,328.5-156L328.5-156z M293.4,17.9l17.1-17.1l69.3-69.3c0.4-0.4,0.7-0.6,1.7-0.6c1.2,0,1.5,0.4,1.8,0.6
			l17.7,17.7c0.3,0.3,0.6,0.7,0.6,1.8c0,1-0.3,1.3-0.6,1.7L331.6,22l-17.1,17.1l24.1,0l52.2,0c0.3,0,0.8,0,1.6,0.8
			c0.7,0.7,0.8,1.2,0.8,1.7l0,25c0,0.5-0.1,0.9-0.8,1.7c-0.8,0.8-1.2,0.8-1.6,0.8L291,69l-25.1,0h-0.1l-0.1,0c0,0,0,0,0,0
			c-0.3,0-0.7,0-1.4-0.8c-0.8-0.8-0.8-1.2-0.8-1.6l0,0v0V41.5l0-99.8c0-0.5,0.1-0.9,0.8-1.6c0.7-0.7,1.1-0.8,1.8-0.8h25
			c0.8,0,1.2,0.2,1.7,0.7c0.5,0.5,0.7,0.9,0.7,1.7l0,52.1L293.4,17.9L293.4,17.9z"/>
	</g>
</g>
</svg>
