<?xml version="1.0" encoding="utf-8"?>
<!-- Generator: Adobe Illustrator 19.1.0, SVG Export Plug-In . SVG Version: 6.00 Build 0)  -->
<svg version="1.1" id="Layer_1" xmlns="http://www.w3.org/2000/svg" xmlns:xlink="http://www.w3.org/1999/xlink" x="0px" y="0px"
	 viewBox="-333 301 333 400" style="enable-background:new -333 301 333 400;" xml:space="preserve">
<style type="text/css">
	.st0{fill:#333333;}
	.st1{fill:none;stroke:#333333;stroke-width:10;stroke-miterlimit:10;}
</style>
<polygon class="st0" points="-197.6,498.5 -112.6,580.5 -87.1,553.5 -169.1,469.5 -98.1,469.5 -98.1,433 -236.1,433 -236.1,568 
	-198.1,569.5 "/>
<g id="XMLID_241_">
	<g>
		<path class="st0" d="M-166.6,351c12.9,0,25.7,1.7,38.6,5.1c25.7,6.7,48.1,19.7,67.4,39c19.2,19.2,32.2,41.7,39,67.4
			c6.8,25.7,6.8,51.4,0,77.1c-6.8,25.7-19.8,48.1-39,67.4c-19.2,19.2-41.7,32.2-67.4,39c-12.8,3.4-25.7,5-38.6,5s-25.7-1.7-38.6-5
			c-25.7-6.8-48.2-19.8-67.4-39c-19.3-19.3-32.3-41.7-39-67.4c-6.8-25.7-6.8-51.4,0-77.1c6.8-25.7,19.8-48.2,38.9-67.4
			c19.3-19.3,41.7-32.2,67.4-39C-192.3,352.7-179.5,351-166.6,351 M-229.2,426h-0.1c-3.3,0-6.2,1.3-8.6,3.7
			c-2.5,2.5-3.7,5.4-3.7,8.7v25.1v99.9c0,3.3,1.2,6.2,3.7,8.7s5.4,3.7,8.7,3.8h25.1c3.3,0,6.2-1.3,8.7-3.7c2.5-2.5,3.7-5.4,3.7-8.7
			v-52.2l69.3,69.3c2.4,2.4,5.3,3.6,8.8,3.6s6.5-1.2,8.8-3.5l17.7-17.9c2.4-2.4,3.5-5.3,3.6-8.9c0-3.5-1.2-6.4-3.6-8.8l-69.3-69.3
			h52.1c3.5,0,6.4-1.2,8.8-3.6s3.6-5.3,3.6-8.8v-25.1c-0.1-3.3-1.3-6.2-3.8-8.7s-5.4-3.7-8.7-3.7l-99.7,0.1H-229.2 M-166.6,341
			c-13.7,0-27.5,1.8-41.1,5.4c-27.3,7.2-51.5,21.1-71.9,41.5s-34.3,44.6-41.5,72c-7.2,27.2-7.2,54.9,0,82.2
			c7.2,27.3,21.2,51.5,41.6,71.9c20.4,20.4,44.6,34.4,71.9,41.6c13.6,3.6,27.5,5.4,41.1,5.4c13.7,0,27.5-1.8,41.1-5.4
			c27.4-7.2,51.5-21.2,71.9-41.6s34.4-44.6,41.6-71.9c7.2-27.3,7.2-55,0-82.2c-7.2-27.3-21.2-51.5-41.6-71.9s-44.7-34.4-71.9-41.6
			C-139.1,342.8-152.9,341-166.6,341L-166.6,341z M-229.2,436h25.1h99.8c0.5,0,0.9,0.1,1.6,0.8c0.7,0.7,0.8,1.1,0.8,1.8v25
			c0,0.8-0.2,1.2-0.7,1.7s-0.9,0.7-1.7,0.7h-52.1h-24.2l17.1,17l69.3,69.3c0.4,0.4,0.6,0.7,0.6,1.7c0,1.2-0.4,1.5-0.6,1.8
			l-17.7,17.7c-0.3,0.3-0.7,0.6-1.8,0.6c-1,0-1.3-0.3-1.7-0.6l-69.2-69.4l-17.1-17v24.1v52.2c0,0.3,0,0.8-0.8,1.6
			c-0.7,0.7-1.2,0.8-1.7,0.8h-25c-0.5,0-0.9-0.1-1.7-0.8c-0.8-0.8-0.8-1.2-0.8-1.6v-99.9v-25.1v-0.1v-0.1c0-0.3,0-0.7,0.8-1.5
			s1.2-0.8,1.5-0.8L-229.2,436L-229.2,436L-229.2,436z"/>
	</g>
</g>
<circle class="st1" cx="-166.8" cy="501" r="159.7"/>
</svg>
