<?xml version="1.0" encoding="utf-8"?>
<!-- Generator: Adobe Illustrator 19.1.0, SVG Export Plug-In . SVG Version: 6.00 Build 0)  -->
<svg version="1.1" id="Layer_1" xmlns="http://www.w3.org/2000/svg" xmlns:xlink="http://www.w3.org/1999/xlink" x="0px" y="0px"
	 viewBox="162 -195 333 400" style="enable-background:new 162 -195 333 400;" xml:space="preserve">
<style type="text/css">
	.st0{fill:#333333;}
</style>
<g id="XMLID_241_">
	<g>
		<path class="st0" d="M328.5-145c12.9,0,25.7,1.7,38.6,5.1c25.7,6.7,48.1,19.7,67.4,39c19.2,19.2,32.2,41.7,39,67.4
			c6.8,25.7,6.8,51.4,0,77.1c-6.8,25.7-19.8,48.1-39,67.4c-19.2,19.2-41.7,32.2-67.4,39c-12.8,3.4-25.7,5-38.6,5
			c-12.9,0-25.7-1.7-38.6-5c-25.7-6.8-48.2-19.8-67.4-39c-19.3-19.3-32.3-41.7-39-67.4c-6.8-25.7-6.8-51.4,0-77.1
			c6.8-25.7,19.8-48.2,38.9-67.4c19.3-19.3,41.7-32.2,67.4-39C302.8-143.3,315.6-145,328.5-145 M265.9-70c0,0-0.1,0-0.1,0
			c-3.3,0-6.2,1.3-8.6,3.7c-2.5,2.5-3.7,5.4-3.7,8.7l0,25.1l0,99.9c0,3.3,1.2,6.2,3.7,8.7c2.5,2.5,5.4,3.7,8.7,3.8l25.1,0
			c3.3,0,6.2-1.3,8.7-3.7c2.5-2.5,3.7-5.4,3.7-8.7l0-52.2l69.3,69.3c2.4,2.4,5.3,3.6,8.8,3.6c3.5,0,6.5-1.2,8.8-3.5L408,66.8
			c2.4-2.4,3.5-5.3,3.6-8.9c0-3.5-1.2-6.4-3.6-8.8l-69.3-69.3l52.1,0c3.5,0,6.4-1.2,8.8-3.6c2.4-2.4,3.6-5.3,3.6-8.8v-25.1
			c-0.1-3.3-1.3-6.2-3.8-8.7c-2.5-2.5-5.4-3.7-8.7-3.7L291-70H265.9 M328.5-155c-13.7,0-27.5,1.8-41.1,5.4
			c-27.3,7.2-51.5,21.1-71.9,41.5c-20.4,20.4-34.3,44.6-41.5,72c-7.2,27.2-7.2,54.9,0,82.2c7.2,27.3,21.2,51.5,41.6,71.9
			c20.4,20.4,44.6,34.4,71.9,41.6c13.6,3.6,27.5,5.4,41.1,5.4c13.7,0,27.5-1.8,41.1-5.4c27.4-7.2,51.5-21.2,71.9-41.6
			c20.4-20.4,34.4-44.6,41.6-71.9c7.2-27.3,7.2-55,0-82.2c-7.2-27.3-21.2-51.5-41.6-71.9c-20.4-20.4-44.7-34.4-71.9-41.6
			C356-153.2,342.2-155,328.5-155L328.5-155z M265.9-60H291l99.8,0c0.5,0,0.9,0.1,1.6,0.8c0.7,0.7,0.8,1.1,0.8,1.8v25
			c0,0.8-0.2,1.2-0.7,1.7c-0.5,0.5-0.9,0.7-1.7,0.7l-52.1,0l-24.2,0L331.6-13l69.3,69.3c0.4,0.4,0.6,0.7,0.6,1.7
			c0,1.2-0.4,1.5-0.6,1.8l-17.7,17.7c-0.3,0.3-0.7,0.6-1.8,0.6c-1,0-1.3-0.3-1.7-0.6L310.5,8.1L293.4-8.9l0,24.1l0,52.2
			c0,0.3,0,0.8-0.8,1.6c-0.7,0.7-1.2,0.8-1.7,0.8l-25,0c-0.5,0-0.9-0.1-1.7-0.8c-0.8-0.8-0.8-1.2-0.8-1.6l0-99.9l0-25.1v-0.1l0-0.1
			c0-0.3,0-0.7,0.8-1.5c0.8-0.8,1.2-0.8,1.5-0.8L265.9-60L265.9-60L265.9-60z"/>
	</g>
</g>
</svg>
