<?xml version="1.0" encoding="utf-8"?>
<!-- Generator: Adobe Illustrator 19.1.0, SVG Export Plug-In . SVG Version: 6.00 Build 0)  -->
<!DOCTYPE svg PUBLIC "-//W3C//DTD SVG 1.1//EN" "http://www.w3.org/Graphics/SVG/1.1/DTD/svg11.dtd">
<svg version="1.1" id="Layer_1" xmlns="http://www.w3.org/2000/svg" xmlns:xlink="http://www.w3.org/1999/xlink" x="0px" y="0px"
	 viewBox="112 276 979 979" style="enable-background:new 112 276 979 979;" xml:space="preserve">
<style type="text/css">
	.st0{opacity:0.9;fill:#FFFFFF;enable-background:new    ;}
	.st1{opacity:0.9;}
	.st2{fill:#FFFFFF;}
</style>
<g>
	<path id="XMLID_276_" class="st0" d="M601.5,301.5c-256.3,0-464,207.8-464,464s207.8,464,464,464s464-207.8,464-464
		S857.8,301.5,601.5,301.5z"/>
	<g id="XMLID_154_" class="st1">
		<path id="XMLID_155_" class="st2" d="M601.5,286.5c64.7,0,127.4,12.7,186.4,37.6c57,24.1,108.3,58.7,152.2,102.6
			c44,44,78.5,95.2,102.6,152.2c25,59,37.6,121.8,37.6,186.4s-12.7,127.4-37.6,186.4c-24.1,57-58.7,108.3-102.6,152.2
			c-44,44-95.2,78.5-152.2,102.6c-59,25-121.8,37.6-186.4,37.6s-127.4-12.7-186.4-37.6c-57-24.1-108.3-58.7-152.2-102.6
			c-44-44-78.5-95.2-102.6-152.2c-25-59-37.6-121.8-37.6-186.4s12.7-127.4,37.6-186.4c24.1-57,58.7-108.3,102.6-152.2
			c44-44,95.2-78.5,152.2-102.6C474.1,299.2,536.8,286.5,601.5,286.5 M601.5,276.6c-270,0-488.9,218.9-488.9,488.9
			s218.9,488.9,488.9,488.9s488.9-218.9,488.9-488.9S871.5,276.6,601.5,276.6L601.5,276.6z"/>
	</g>
</g>
<g>
	<g>
		<path d="M279.3,588.5l-5.8-2.7c24.9-54.5,64.9-100.4,115.6-132.6l3.4,5.4C342.9,490.2,303.8,535.1,279.3,588.5z"/>
	</g>
	<g>
		<polygon points="379.2,504.7 373.1,502.9 386.5,459 340.6,457.6 340.8,451.2 395.1,452.8 		"/>
	</g>
</g>
<g>
	<g>
		<path d="M923.7,942.5l5.8,2.7c-24.9,54.5-64.9,100.4-115.6,132.6l-3.4-5.4C860.1,1040.8,899.2,995.9,923.7,942.5z"/>
	</g>
	<g>
		<polygon points="823.8,1026.3 829.9,1028.1 816.5,1072 862.4,1073.4 862.2,1079.8 807.9,1078.2 		"/>
	</g>
</g>
<g>
	<g>
		<path d="M412.8,1075.9l-2.7,5.8c-54.5-24.9-100.4-64.9-132.6-115.6l5.4-3.4C314.5,1012.4,359.4,1051.5,412.8,1075.9z"/>
	</g>
	<g>
		<polygon points="329,976.1 327.2,982.2 283.3,968.8 281.9,1014.7 275.5,1014.5 277.1,960.2 		"/>
	</g>
</g>
<g>
	<g>
		<path d="M790.2,455.1l2.7-5.8c54.5,24.9,100.4,64.9,132.6,115.6l-5.4,3.4C888.5,518.6,843.6,479.5,790.2,455.1z"/>
	</g>
	<g>
		<polygon points="874,554.9 875.8,548.8 919.7,562.2 921.1,516.3 927.5,516.5 925.9,570.8 		"/>
	</g>
</g>
</svg>
