<?xml version="1.0" encoding="utf-8"?>
<!-- Generator: Adobe Illustrator 19.1.0, SVG Export Plug-In . SVG Version: 6.00 Build 0)  -->
<svg version="1.1" id="Layer_1" xmlns="http://www.w3.org/2000/svg" xmlns:xlink="http://www.w3.org/1999/xlink" x="0px" y="0px"
	 viewBox="-333 301 333 400" style="enable-background:new -333 301 333 400;" xml:space="preserve">
<style type="text/css">
	.st0{fill:#333333;}
	.st1{fill:none;stroke:#333333;stroke-width:10;stroke-miterlimit:10;}
</style>
<g>
	<polygon class="st0" points="-135.4,503.5 -220.4,421.5 -245.9,448.5 -163.9,532.5 -234.9,532.5 -234.9,569 -96.9,569 -96.9,434 
		-134.9,432.5 	"/>
	<g id="XMLID_1_">
		<g>
			<path class="st0" d="M-166.4,651c-12.9,0-25.7-1.7-38.6-5.1c-25.7-6.7-48.1-19.7-67.4-39c-19.2-19.2-32.2-41.7-39-67.4
				s-6.8-51.4,0-77.1c6.8-25.7,19.8-48.1,39-67.4c19.2-19.2,41.7-32.2,67.4-39c12.8-3.4,25.7-5,38.6-5s25.7,1.7,38.6,5
				c25.7,6.8,48.2,19.8,67.4,39c19.3,19.3,32.3,41.7,39,67.4c6.8,25.7,6.8,51.4,0,77.1s-19.8,48.2-38.9,67.4
				c-19.3,19.3-41.7,32.2-67.4,39C-140.7,649.3-153.5,651-166.4,651 M-103.8,576h0.1c3.3,0,6.2-1.3,8.6-3.7c2.5-2.5,3.7-5.4,3.7-8.7
				v-25.1v-99.9c0-3.3-1.2-6.2-3.7-8.7s-5.4-3.7-8.7-3.8h-25.1c-3.3,0-6.2,1.3-8.7,3.7c-2.5,2.5-3.7,5.4-3.7,8.7v52.2l-69.3-69.3
				c-2.4-2.4-5.3-3.6-8.8-3.6s-6.5,1.2-8.8,3.5l-17.7,17.9c-2.4,2.4-3.5,5.3-3.6,8.9c0,3.5,1.2,6.4,3.6,8.8l69.3,69.3h-52.1
				c-3.5,0-6.4,1.2-8.8,3.6s-3.6,5.3-3.6,8.8v25.1c0.1,3.3,1.3,6.2,3.8,8.7c2.5,2.5,5.4,3.7,8.7,3.7l99.7-0.1H-103.8 M-166.4,661
				c13.7,0,27.5-1.8,41.1-5.4c27.3-7.2,51.5-21.1,71.9-41.5c20.4-20.4,34.3-44.6,41.5-72c7.2-27.2,7.2-54.9,0-82.2
				c-7.2-27.3-21.2-51.5-41.6-71.9s-44.6-34.4-71.9-41.6c-13.6-3.6-27.5-5.4-41.1-5.4c-13.7,0-27.5,1.8-41.1,5.4
				c-27.4,7.2-51.5,21.2-71.9,41.6s-34.4,44.6-41.6,71.9c-7.2,27.3-7.2,55,0,82.2c7.2,27.3,21.2,51.5,41.6,71.9s44.7,34.4,71.9,41.6
				C-193.9,659.2-180.1,661-166.4,661L-166.4,661z M-103.8,566h-25.1h-99.8c-0.5,0-0.9-0.1-1.6-0.8c-0.7-0.7-0.8-1.1-0.8-1.8v-25
				c0-0.8,0.2-1.2,0.7-1.7s0.9-0.7,1.7-0.7h52.1h24.2l-17.1-17l-69.3-69.3c-0.4-0.4-0.6-0.7-0.6-1.7c0-1.2,0.4-1.5,0.6-1.8
				l17.7-17.7c0.3-0.3,0.7-0.6,1.8-0.6c1,0,1.3,0.3,1.7,0.6l69.2,69.4l17.1,17v-24.1v-52.2c0-0.3,0-0.8,0.8-1.6
				c0.7-0.7,1.2-0.8,1.7-0.8h25c0.5,0,0.9,0.1,1.7,0.8c0.8,0.8,0.8,1.2,0.8,1.6v99.9v25.1v0.1v0.1c0,0.3,0,0.7-0.8,1.5
				s-1.2,0.8-1.5,0.8L-103.8,566L-103.8,566L-103.8,566z"/>
		</g>
	</g>
	<circle class="st1" cx="-166.2" cy="501" r="159.7"/>
</g>
</svg>
