<?xml version="1.0" encoding="utf-8"?>
<!-- Generator: Adobe Illustrator 19.1.0, SVG Export Plug-In . SVG Version: 6.00 Build 0)  -->
<svg version="1.1" id="Layer_1" xmlns="http://www.w3.org/2000/svg" xmlns:xlink="http://www.w3.org/1999/xlink" x="0px" y="0px"
	 viewBox="162 -195 333 400" style="enable-background:new 162 -195 333 400;" xml:space="preserve">
<style type="text/css">
	.st0{fill:#333333;}
</style>
<g id="XMLID_241_">
	<g>
		<path class="st0" d="M328.5-146c12.9,0,25.7,1.7,38.6,5c25.7,6.8,48.2,19.8,67.4,39c19.3,19.3,32.3,41.7,39,67.4
			c6.8,25.7,6.8,51.4,0,77.1c-6.8,25.7-19.8,48.2-38.9,67.4c-19.3,19.3-41.7,32.2-67.4,39c-12.8,3.4-25.7,5.1-38.6,5.1
			c-12.9,0-25.7-1.7-38.6-5.1c-25.7-6.7-48.1-19.7-67.4-39c-19.2-19.2-32.2-41.7-39-67.4c-6.8-25.7-6.8-51.4,0-77.1
			c6.8-25.7,19.8-48.1,39-67.4c19.2-19.2,41.7-32.2,67.4-39C302.8-144.3,315.6-146,328.5-146 M318.3,29.1l-52.1,0
			c-3.5,0-6.4,1.2-8.8,3.6s-3.6,5.3-3.6,8.8v25.1c0.1,3.3,1.3,6.2,3.8,8.7c2.5,2.5,5.4,3.7,8.7,3.7l99.9,0h25.1c0,0,0.1,0,0.1,0
			c3.3,0,6.2-1.3,8.6-3.7c2.5-2.5,3.7-5.4,3.7-8.7l0-25.1l0-99.9c0-3.3-1.2-6.2-3.7-8.7c-2.5-2.5-5.4-3.7-8.7-3.8l-25.1,0
			c-3.3,0-6.2,1.3-8.7,3.7c-2.5,2.5-3.7,5.4-3.7,8.7l0,52.2l-69.3-69.3c-2.4-2.4-5.3-3.6-8.8-3.6c-3.5,0-6.5,1.2-8.8,3.5L249-57.8
			c-2.4,2.4-3.5,5.3-3.6,8.9c0,3.5,1.2,6.4,3.6,8.8L318.3,29.1 M328.5-156v10V-156c-13.7,0-27.5,1.8-41.1,5.4
			c-27.4,7.2-51.5,21.2-71.9,41.6c-20.4,20.4-34.4,44.6-41.6,71.9c-7.2,27.3-7.2,55,0,82.2c7.2,27.3,21.2,51.5,41.6,71.9
			c20.4,20.4,44.7,34.4,71.9,41.6c13.6,3.6,27.4,5.4,41.1,5.4c13.7,0,27.5-1.8,41.1-5.4c27.3-7.2,51.5-21.1,71.9-41.5
			c20.4-20.4,34.3-44.6,41.5-72c7.2-27.2,7.2-54.9,0-82.2c-7.2-27.3-21.2-51.5-41.6-71.9c-20.4-20.4-44.6-34.4-71.9-41.6
			C356-154.2,342.2-156,328.5-156L328.5-156z M255.4-48.9c0-1.2,0.4-1.5,0.6-1.8l17.7-17.7c0.3-0.3,0.7-0.6,1.8-0.6
			c1,0,1.3,0.3,1.7,0.6l69.3,69.3l17.1,17.1l0-24.1l0-52.2c0-0.3,0-0.8,0.8-1.6c0.7-0.7,1.2-0.8,1.7-0.8l25,0c0.5,0,0.9,0.1,1.7,0.8
			c0.8,0.8,0.8,1.2,0.8,1.6l0,99.9l0,25.1v0.1l0,0.1c0,0.3,0,0.7-0.8,1.5c-0.8,0.8-1.2,0.8-1.5,0.8l0,0l-0.1,0H366l-99.8,0
			c-0.5,0-0.9-0.1-1.6-0.8c-0.7-0.7-0.8-1.1-0.8-1.8v-25c0-0.8,0.2-1.2,0.7-1.7c0.5-0.5,0.9-0.7,1.7-0.7l52.1,0l24.2,0L325.4,22
			l-69.3-69.3C255.7-47.6,255.5-47.9,255.4-48.9L255.4-48.9z"/>
	</g>
</g>
</svg>
